<?xml version="1.0" encoding="UTF-8" standalone="no"?>
<svg
   width="1000"
   height="660.88336"
   viewBox="0 0 264.58335 174.85873"
   version="1.1"
   id="svg8"
   sodipodi:docname="design-2.svg"
   inkscape:version="1.2-dev (9ee32be, 2021-06-19)"
   xmlns:inkscape="http://www.inkscape.org/namespaces/inkscape"
   xmlns:sodipodi="http://sodipodi.sourceforge.net/DTD/sodipodi-0.dtd"
   xmlns:xlink="http://www.w3.org/1999/xlink"
   xmlns="http://www.w3.org/2000/svg"
   xmlns:svg="http://www.w3.org/2000/svg"
   xmlns:rdf="http://www.w3.org/1999/02/22-rdf-syntax-ns#"
   xmlns:cc="http://creativecommons.org/ns#"
   xmlns:dc="http://purl.org/dc/elements/1.1/">
  <sodipodi:namedview
     pagecolor="#ffffff"
     bordercolor="#666666"
     id="namedview26"
     showgrid="false"
     borderopacity="1"
     objecttolerance="10"
     gridtolerance="10"
     guidetolerance="10"
     inkscape:pageopacity="0"
     inkscape:pageshadow="2"
     inkscape:window-width="1440"
     inkscape:window-height="762"
     inkscape:measure-start="0,0"
     inkscape:measure-end="0,0"
     inkscape:zoom="0.63158792"
     inkscape:cx="767.90576"
     inkscape:cy="324.57872"
     inkscape:window-x="0"
     inkscape:window-y="25"
     inkscape:window-maximized="1"
     inkscape:current-layer="svg8"
     showguides="true"
     fit-margin-top="0"
     fit-margin-left="0"
     fit-margin-right="0"
     fit-margin-bottom="0"
     inkscape:pagecheckerboard="0"
     units="in" />
  <style
     type="text/css"
     id="style3"><![CDATA[
      @font-face {
         font-family: "Cairo";
         src: url("FONTS_DIR/Cairo.ttf") format("openType");
      }
      text {
         font-family: "Cairo", serif;
      }
      ]]></style>
  <defs
     id="defs2">
    <linearGradient
       inkscape:collect="always"
       id="linearGradient1153">
      <stop
         style="stop-color:#ffffff;stop-opacity:1;"
         offset="0"
         id="stop1149" />
      <stop
         style="stop-color:#ededed;stop-opacity:1;"
         offset="1"
         id="stop1151" />
    </linearGradient>
    <radialGradient
       inkscape:collect="always"
       xlink:href="#linearGradient1153"
       id="radialGradient1155"
       cx="410.56027"
       cy="233.42099"
       fx="410.56027"
       fy="233.42099"
       r="410.56027"
       gradientTransform="matrix(0.32222229,0,0,0.21295137,-2.7126465e-6,37.722049)"
       gradientUnits="userSpaceOnUse" />
    <filter
       inkscape:collect="always"
       style="color-interpolation-filters:sRGB"
       id="filter1050"
       x="-0.034154902"
       y="-0.053644428"
       width="1.0683098"
       height="1.1072889">
      <feGaussianBlur
         inkscape:collect="always"
         stdDeviation="10.555938"
         id="feGaussianBlur1052" />
    </filter>
  </defs>
  <metadata
     id="metadata5">
    <rdf:RDF>
      <cc:Work
         rdf:about="">
        <dc:format>image/svg+xml</dc:format>
        <dc:type
           rdf:resource="http://purl.org/dc/dcmitype/StillImage" />
        <dc:language>ar</dc:language>
      </cc:Work>
    </rdf:RDF>
  </metadata>
  <rect
     style="opacity:1;fill:url(#radialGradient1155);fill-opacity:1;stroke:none;stroke-width:1.47504;stroke-linecap:butt;stroke-linejoin:miter;stroke-miterlimit:4;stroke-dasharray:none;stroke-dashoffset:0;stroke-opacity:1"
     id="rect14"
     width="264.58334"
     height="174.85873"
     x="0"
     y="0" />
  <rect
     style="opacity:1;fill:#000000;fill-opacity:0.495968;stroke:none;stroke-width:4.05879;stroke-linecap:butt;stroke-linejoin:miter;stroke-miterlimit:4;stroke-dasharray:none;stroke-dashoffset:0;stroke-opacity:1;filter:url(#filter1050)"
     id="rect215"
     width="741.74567"
     height="472.26248"
     x="25.334251"
     y="25.334249"
     ry="21.662756"
     transform="matrix(0.33295065,0,0,0.33295065,0.37426593,0.37426263)" />
  <rect
     style="opacity:1;fill:#222222;fill-opacity:1;stroke:none;stroke-width:1.35137;stroke-linecap:butt;stroke-linejoin:miter;stroke-miterlimit:4;stroke-dasharray:none;stroke-dashoffset:0;stroke-opacity:1"
     id="rect273"
     width="246.96471"
     height="157.2401"
     x="8.8093214"
     y="8.8093176"
     ry="7.2126288" />
  <g
     id="g16109"
     transform="matrix(0.62100578,0,0,0.62100578,4.3323159,5.0531985)">
    <rect
       style="fill:#ff0303;fill-opacity:1;stroke-width:0.264583"
       id="rect1321"
       width="25.972897"
       height="12.986448"
       x="23.040472"
       y="33.513416"
       ry="6.4932241" />
    <rect
       style="opacity:1;fill:#d9bc27;fill-opacity:1;stroke-width:0.534341"
       id="rect5554"
       width="8.7695312"
       height="10.079994"
       x="48.944794"
       y="33.864334" />
    <path
       style="fill:#ffffff;stroke-width:0.0863462"
       d="m 38.519439,57.201737 c -3.18585,-0.300077 -6.5938,-1.617396 -9.16713,-3.543494 -1.60497,-1.201299 -3.48933,-3.249537 -4.52278,-4.916111 -2.628288,-4.238487 -3.430328,-9.297346 -2.23282,-14.083519 0.60515,-2.418665 1.9203,-5.065653 3.46446,-6.972869 0.72841,-0.899676 2.42826,-2.540698 3.30177,-3.187517 2.4084,-1.78336 5.26441,-2.964989 8.29304,-3.431112 1.35216,-0.208105 3.82861,-0.208105 5.18077,0 2.44447,0.376218 4.60111,1.147356 6.75656,2.41591 2.31126,1.360245 4.6463,3.645986 6.06989,5.941717 2.47188,3.986261 3.33845,8.74904 2.41326,13.263615 -0.29961,1.461997 -0.92639,3.433666 -1.37523,4.326037 -0.85497,1.699867 -2.25154,3.581268 -3.73284,5.028724 -1.62535,1.588217 -3.05953,2.583082 -5.16968,3.586108 -2.77761,1.320296 -6.05692,1.876023 -9.27927,1.572511 z m 11.3977,-13.196569 c 0.36539,-0.365396 0.099,-1.037667 -0.41015,-1.034832 -0.28915,0.0016 -0.39541,0.06737 -0.53408,0.330519 -0.31437,0.596587 0.46821,1.180329 0.94423,0.704313 z m -18.64207,-1.481091 c 0.16143,-0.05476 0.40018,-0.173843 0.53057,-0.264642 l 0.23706,-0.165088 0.5415,0.26658 0.5415,0.26658 5.35571,-0.02353 5.35572,-0.02352 0.43472,-0.225587 0.43472,-0.225589 0.35912,0.212085 c 0.67665,0.399602 1.82552,0.351322 2.3922,-0.100531 l 0.24501,-0.195367 0.43024,0.267494 c 0.38248,0.237804 0.50297,0.267495 1.08553,0.267495 0.75147,0 1.15015,-0.155234 1.62934,-0.634414 0.57204,-0.572047 0.66695,-0.919848 0.6633,-2.430874 -0.004,-1.569541 -0.0424,-1.765433 -0.38229,-1.941218 -0.37165,-0.192187 -0.58998,-0.161853 -0.87314,0.121307 l -0.2524,0.252396 v 1.254598 c 0,0.735567 -0.0397,1.341645 -0.0959,1.465006 -0.19388,0.425522 -0.78893,0.523923 -1.17292,0.193961 l -0.24227,-0.208181 -0.0231,-1.28129 c -0.0281,-1.55703 -0.0434,-1.632847 -0.36238,-1.797797 -0.37165,-0.192187 -0.58998,-0.161853 -0.87314,0.121307 l -0.2524,0.252396 v 1.308476 1.308477 l -0.25239,0.252396 c -0.30056,0.300557 -0.66108,0.330581 -0.97782,0.08143 -0.16807,-0.132206 -0.23141,-0.283567 -0.2794,-0.667679 -0.11348,-0.908271 -0.58906,-1.573974 -1.38298,-1.935889 -0.30837,-0.140569 -0.61207,-0.157648 -2.83339,-0.159342 l -2.488,-0.0019 0.51012,-0.626009 c 0.65672,-0.805905 0.73809,-0.966361 0.67111,-1.323389 -0.0657,-0.35035 -0.33032,-0.55464 -0.71837,-0.55464 -0.35308,0 -0.39738,0.0435 -1.70259,1.672294 -0.87512,1.092072 -1.02871,1.329016 -1.02871,1.587007 0,0.223916 0.0623,0.356827 0.23795,0.507946 l 0.23795,0.204676 h 3.18337 3.18336 l 0.26567,0.223541 c 0.3162,0.266071 0.35791,0.679554 0.1006,0.997326 l -0.16507,0.203845 h -5.1527 -5.1527 l -0.20839,-0.242267 -0.20839,-0.242267 V 37.517743 34.4938 l -0.2625,-0.262497 c -0.22066,-0.22066 -0.30662,-0.253672 -0.53936,-0.207125 -0.15228,0.03045 -0.35471,0.133154 -0.44986,0.228221 -0.16499,0.164852 -0.17499,0.316869 -0.21616,3.286646 l -0.0432,3.1138 -0.24227,0.208274 c -0.23904,0.205498 -0.26588,0.208274 -2.01419,0.208274 h -1.77192 l -0.2524,-0.252397 c -0.24818,-0.248177 -0.2524,-0.268173 -0.2524,-1.196237 0,-0.882187 -0.0138,-0.958766 -0.21174,-1.172316 -0.28375,-0.306177 -0.74722,-0.313516 -1.0442,-0.01653 -0.20398,0.203984 -0.21194,0.25548 -0.21194,1.371678 0,1.097572 0.0127,1.184069 0.23745,1.613626 0.26727,0.510872 0.70232,0.902852 1.19827,1.079639 0.43455,0.154899 4.08969,0.176856 4.53087,0.02722 z m -1.40751,-4.235025 c 0.057,-0.05699 0.10361,-0.224068 0.10361,-0.371288 0,-0.352528 -0.13717,-0.474904 -0.53231,-0.474904 -0.2307,0 -0.3505,-0.0475 -0.41264,-0.163625 -0.11706,-0.218715 0.0295,-0.333658 0.47114,-0.369605 l 0.34429,-0.02802 v -0.388558 -0.388558 l -0.4749,-0.02396 c -0.3351,-0.01691 -0.56191,0.02318 -0.77044,0.13619 -0.36488,0.19773 -0.63545,0.663788 -0.57399,0.988688 0.0353,0.186726 0.0122,0.237452 -0.10834,0.237452 -0.22821,0 -0.3605,0.174276 -0.3605,0.474904 0,0.432162 0.1088,0.474904 1.20885,0.474904 0.6639,0 1.03655,-0.03494 1.10523,-0.103616 z m 22.76242,-0.121488 c 0.20657,-0.07927 0.16456,-0.388445 -0.11085,-0.815732 -0.36987,-0.573822 -0.73523,-0.887396 -0.95331,-0.818179 -0.26544,0.08425 -0.22588,0.402454 0.0869,0.698774 0.14721,0.139483 0.38221,0.418743 0.52222,0.620577 0.27866,0.401698 0.26057,0.389198 0.45507,0.31456 z m 1.2053,-0.07884 c 0.11519,-0.115193 0.11631,-0.173591 0.009,-0.477429 -0.19092,-0.541114 -0.70151,-1.248453 -1.27735,-1.769562 -0.70475,-0.637762 -1.18202,-0.745261 -1.18202,-0.266234 0,0.156304 0.0946,0.265824 0.36818,0.426139 0.50384,0.295269 1.19595,1.049394 1.44156,1.570737 0.32516,0.690182 0.40352,0.753351 0.64052,0.516349 z m 1.21461,0.01595 c 0.15152,-0.110794 0.15178,-0.133578 0.007,-0.582837 -0.27046,-0.837683 -0.73164,-1.55806 -1.46218,-2.283957 -1.06925,-1.062449 -2.12917,-1.54149 -2.19009,-0.989828 -0.0207,0.187108 0.0536,0.256126 0.55764,0.518077 0.88191,0.458357 1.7658,1.339624 2.18636,2.179872 0.18982,0.379251 0.34513,0.734687 0.34513,0.789857 0,0.126137 0.24681,0.484117 0.33377,0.484117 0.0357,0 0.13591,-0.05189 0.22264,-0.115301 z m -8.87279,-1.02225 c 0.24037,-0.225812 0.26967,-0.714482 0.0569,-0.949544 -0.1985,-0.219342 -0.75385,-0.210958 -0.9796,0.01479 -0.38422,0.384218 -0.0798,1.1225 0.4628,1.1225 0.14812,0 0.34601,-0.08079 0.45986,-0.187744 z"
       id="path3269" />
  </g>
  <path
     style="fill:#000000;stroke-width:0.176389"
     id="path5062"
     d="" />
  <text
     x="243.40742"
     y="76.509087"
     id="tspan5902"
     style="font-style:normal;font-variant:normal;font-weight:normal;font-stretch:normal;font-size:15.5878px;letter-spacing:0px;writing-mode:lr-tb;text-anchor:middle;fill:#fcfcfc;fill-opacity:1;stroke-width:0.803309;image-rendering:optimizeQuality"><tspan
       style="font-style:normal;font-variant:normal;font-weight:normal;font-stretch:normal;font-size:15.5878px;font-family:Cairo;-inkscape-font-specification:Cairo;text-align:end;writing-mode:lr-tb;text-anchor:end;fill:#fcfcfc;fill-opacity:1;stroke-width:0.803309"
       id="tspan831">USERNAME</tspan></text>
  <text
     x="226.41553"
     y="89.599068"
     id="text1794"
     style="font-style:normal;font-variant:normal;font-weight:normal;font-stretch:normal;font-size:6.34271px;text-align:end;letter-spacing:0px;writing-mode:lr-tb;text-anchor:end;fill:#fcfcfc;fill-opacity:1;stroke-width:0.562653;image-rendering:optimizeQuality"><tspan
       style="font-style:normal;font-variant:normal;font-weight:normal;font-stretch:normal;font-family:Cairo;-inkscape-font-specification:Cairo"
       id="tspan2243">USERBRANCH</tspan></text>
  <text
     x="236.69048"
     y="88.775719"
     id="text45539"
     style="font-style:normal;font-variant:normal;font-weight:normal;font-stretch:normal;font-size:6.34271px;font-family:Cairo;-inkscape-font-specification:Cairo;letter-spacing:0px;writing-mode:lr-tb;text-anchor:middle;fill:#fcfcfc;fill-opacity:1;stroke-width:0.562653;image-rendering:optimizeQuality">الفرع</text>
  <text
     x="209.86452"
     y="100.49094"
     id="text50350"
     style="font-style:normal;font-variant:normal;font-weight:normal;font-stretch:normal;font-size:6.34271px;text-align:end;letter-spacing:0px;writing-mode:lr-tb;text-anchor:end;fill:#fcfcfc;fill-opacity:1;stroke-width:0.562653;image-rendering:optimizeQuality"><tspan
       style="font-style:normal;font-variant:normal;font-weight:normal;font-stretch:normal;font-family:Cairo;-inkscape-font-specification:Cairo"
       id="tspan19393">USERACCOUNT</tspan></text>
  <text
     x="227.84874"
     y="99.667572"
     id="text50352"
     style="font-style:normal;font-variant:normal;font-weight:normal;font-stretch:normal;font-size:6.34271px;font-family:Cairo;-inkscape-font-specification:Cairo;letter-spacing:0px;writing-mode:lr-tb;text-anchor:middle;fill:#fcfcfc;fill-opacity:1;stroke-width:0.562653;image-rendering:optimizeQuality">رقم الحساب</text>
  <text
     x="209.35187"
     y="111.91195"
     id="text54212"
     style="font-style:normal;font-variant:normal;font-weight:normal;font-stretch:normal;font-size:6.34271px;text-align:end;letter-spacing:0px;writing-mode:lr-tb;text-anchor:end;fill:#fcfcfc;fill-opacity:1;stroke-width:0.562653;image-rendering:optimizeQuality"><tspan
       style="font-style:normal;font-variant:normal;font-weight:normal;font-stretch:normal;font-family:Cairo;-inkscape-font-specification:Cairo"
       id="tspan20973">USERMOBILE</tspan></text>
  <text
     x="227.84874"
     y="111.08859"
     id="text54214"
     style="font-style:normal;font-variant:normal;font-weight:normal;font-stretch:normal;font-size:6.34271px;font-family:Cairo;-inkscape-font-specification:Cairo;letter-spacing:0px;writing-mode:lr-tb;text-anchor:middle;fill:#fcfcfc;fill-opacity:1;stroke-width:0.562653;image-rendering:optimizeQuality">رقم الهاتف</text>
</svg>
